<?xml version="1.0" encoding="UTF-8"?>
<svg width="40px" height="40px" viewBox="0 0 40 40" version="1.1" xmlns="http://www.w3.org/2000/svg" xmlns:xlink="http://www.w3.org/1999/xlink">
    <!-- Generator: Sketch 55.2 (78181) - https://sketchapp.com -->
    <title>关闭</title>
    <desc>Created with Sketch.</desc>
    <g id="页面1" stroke="none" stroke-width="1" fill="none" fill-rule="evenodd">
        <g id="iPhone-8" transform="translate(-167.000000, -486.000000)" fill="#FFFFFF" fill-rule="nonzero">
            <g id="关闭" transform="translate(167.000000, 486.000000)">
                <path d="M20.0000233,39.6875462 C9.12501062,39.6875462 0.312500364,30.8750359 0.312500364,20.0000233 C0.312500364,9.12501062 9.12501062,0.312500364 20.0000233,0.312500364 C30.8750359,0.312500364 39.6875462,9.12501062 39.6875462,20.0000233 C39.6875462,30.8750359 30.8750359,39.6875462 20.0000233,39.6875462 Z M20.0000233,2.18750255 C10.1875025,2.18750255 2.18750255,10.1875025 2.18750255,20.0000233 C2.18750255,29.8125347 10.1875025,37.812544 20.0000233,37.812544 C29.8125347,37.812544 37.812544,29.8125347 37.812544,20.0000233 C37.812544,10.1875025 29.8125347,2.18750255 20.0000233,2.18750255 Z M21.4375249,20.0000233 L29.0625338,12.3750144 C29.4375343,12.000014 29.4375343,11.3750132 29.0625338,10.9375127 L29.0000337,10.8750127 C28.6250333,10.5000122 28.0000326,10.5000122 27.6250321,10.8750127 L20.0000233,18.5625216 L12.3750144,10.9375127 C12.000014,10.5625123 11.3750132,10.5625123 11.0000128,10.9375127 L10.9375127,11.0000128 C10.5625123,11.3750132 10.5625123,12.000014 10.9375127,12.4375145 L18.5625216,20.0000233 L10.9375127,27.6250321 C10.5625123,28.0000326 10.5625123,28.6250333 10.9375127,29.0625338 L11.0000128,29.1250339 C11.3750132,29.5000343 12.000014,29.5000343 12.3750144,29.1250339 L20.0000233,21.4375249 L27.6250321,29.0625338 C28.0000326,29.4375343 28.6250333,29.4375343 29.0000337,29.0625338 L29.0625338,29.0000337 C29.4375343,28.6250333 29.4375343,28.0000326 29.0625338,27.5625321 L21.4375249,20.0000233 Z" id="形状"></path>
            </g>
        </g>
    </g>
</svg>